<svg xmlns="http://www.w3.org/2000/svg" width="400" height="400" viewBox="0 0 400 400">
  <g transform="translate(190.17,101.244)">
    <path fill="rgb(155,190,255)" fill-opacity="1" d="M35.75699996948242,-104.70500183105469 C18.408000946044922,-43.2130012512207 -34.90999984741211,15.743000030517578 -135.62100219726562,103.64900207519531 C-132.58799743652344,107.66400146484375 -109.63899993896484,106.18399810791016 -42.104000091552734,68.14800262451172 C-56.77299880981445,82.3759994506836 -98.80599975585938,116.96199798583984 -149.5850067138672,141.4739990234375 C-130.96600341796875,145.48899841308594 -72.99400329589844,119.91999816894531 -10.789999961853027,80.19300079345703 C-17.983999252319336,89.27899932861328 -57.7599983215332,128.3719940185547 -101.34500122070312,156.68800354003906 C-76.802001953125,153.0959930419922 -4.6539998054504395,120.55400085449219 50.77899932861328,74.6989974975586 C47.323001861572266,82.94000244140625 40.53799819946289,101.7040023803711 41.04600143432617,110.83300018310547 C74.26399993896484,83.36199951171875 142.4759979248047,19.71500015258789 149.5850067138672,-15.109000205993652 C144.08399963378906,-3.063999891281128 115.94400024414062,14.475000381469727 92.45899963378906,28.422000885009766 C102.68499755859375,15.954999923706055 124.44999694824219,-12.616000175476074 129.69700622558594,-27.15399932861328 C122.50299835205078,-12.78499984741211 94.78700256347656,5.388999938964844 82.09200286865234,10.24899959564209 C100.21700286865234,-15.883000373840332 135.11300659179688,-85.85600280761719 129.69700622558594,-156.68800354003906 C130.33200073242188,-144.00900268554688 93.51699829101562,-72.375 55.0099983215332,-41.52299880981445 C59.242000579833984,-46.805999755859375 62.202999114990234,-60.32899856567383 60.933998107910156,-68.14800262451172 C55.50400161743164,-57.512001037597656 41.638999938964844,-35.60599899291992 29.621000289916992,-33.06999969482422 C47.18199920654297,-52.29899978637695 43.584999084472656,-86.74299621582031 35.75699996948242,-104.70500183105469z"/>
  </g>
</svg>
