<svg xmlns="http://www.w3.org/2000/svg" width="400" height="400" viewBox="0 0 400 400">
  <g transform="translate(0,0)">
    <path fill="rgb(133,176,255)" fill-opacity="1" d="M-157.5330047607422,-65.25399780273438 C-157.5330047607422,-65.25399780273438 -167.4980010986328,38.17100143432617 -167.4980010986328,38.17100143432617 C-167.4980010986328,38.17100143432617 -152.7729949951172,81.58599853515625 -152.7729949951172,81.58599853515625 C-152.7729949951172,81.58599853515625 84.51699829101562,65.62100219726562 84.51699829101562,65.62100219726562 C84.51699829101562,65.62100219726562 122.0790023803711,78.1729965209961 122.0790023803711,78.1729965209961 C122.0790023803711,78.1729965209961 115.81900024414062,59.34600067138672 115.81900024414062,59.34600067138672 C115.81900024414062,59.34600067138672 161.0330047607422,56.34600067138672 161.0330047607422,56.34600067138672 C161.0330047607422,56.34600067138672 169.4530029296875,-7.4670000076293945 169.4530029296875,-7.4670000076293945 C169.4530029296875,-7.4670000076293945 153.83799743652344,-95.08599853515625 153.83799743652344,-95.08599853515625 C153.83799743652344,-95.08599853515625 23.41200065612793,-79.85099792480469 23.41200065612793,-79.85099792480469 C23.41200065612793,-79.85099792480469 -157.5330047607422,-65.25399780273438 -157.5330047607422,-65.25399780273438z"/>
  </g>
</svg>
