<svg width="500" height="300" viewBox="0 0 500 300" xmlns="http://www.w3.org/2000/svg">
  <path fill="rgb(0,0,0)" fill-opacity="1" d=" M-6.297694206237793,-64 C-6.297694206237793,-64 -6.297694206237793,64 -6.297694206237793,64 C-6.297694206237793,64 -7.248478412628174,64 -7.248478412628174,64 C-7.248478412628174,64 -7.248478412628174,-64 -7.248478412628174,-64 C-7.248478412628174,-64 -6.297694206237793,-64 -6.297694206237793,-64z"></path>
  <path stroke-linecap="round" stroke-linejoin="round" fill-opacity="0" stroke="rgb(0,0,0)" stroke-opacity="1" stroke-width="10" d=" M-6.297694206237793,-64 C-6.297694206237793,-64 -6.297694206237793,64 -6.297694206237793,64 C-6.297694206237793,64 -7.248478412628174,64 -7.248478412628174,64 C-7.248478412628174,64 -7.248478412628174,-64 -7.248478412628174,-64 C-7.248478412628174,-64 -6.297694206237793,-64 -6.297694206237793,-64z"></path>

  <path fill="rgb(0,0,0)" fill-opacity="1" transform="translate(400,200)" d=" M67.83528900146484,-8 C67.83528900146484,21 48.3106803894043,41 13.166387557983398,48 C13.166387557983398,48 -6.35822057723999,64 -6.35822057723999,64 C-6.35822057723999,64 -14.16806411743164,48 -14.16806411743164,48 C-49.31235885620117,41 -66.88450622558594,17 -66.88450622558594,-8 C-66.88450622558594,-37 -41.50251388549805,-64 -0.5008382201194763,-64 C40.50083923339844,-64 67.83528900146484,-37 67.83528900146484,-8z"></path>
  <path stroke-linecap="round" stroke-linejoin="round" fill-opacity="0" stroke="rgb(0,0,0)" stroke-opacity="1" stroke-width="10" transform="translate(400,200)" d=" M67.83528900146484,-8 C67.83528900146484,21 48.3106803894043,41 13.166387557983398,48 C13.166387557983398,48 -6.35822057723999,64 -6.35822057723999,64 C-6.35822057723999,64 -14.16806411743164,48 -14.16806411743164,48 C-49.31235885620117,41 -66.88450622558594,17 -66.88450622558594,-8 C-66.88450622558594,-37 -41.50251388549805,-64 -0.5008382201194763,-64 C40.50083923339844,-64 67.83528900146484,-37 67.83528900146484,-8z"></path>

  <path fill="rgb(255,131,79)" fill-opacity="1" transform="translate(400,200)" d=" M66.88450622558594,-8 C66.88450622558594,21 47.35989761352539,41 12.21560287475586,48 C12.21560287475586,48 -7.309004783630371,64 -7.309004783630371,64 C-7.309004783630371,64 -15.118847846984863,48 -15.118847846984863,48 C-50.26314163208008,41 -67.83528900146484,17 -67.83528900146484,-8 C-67.83528900146484,-37 -42.45330047607422,-64 -1.4516226053237915,-64 C39.550052642822266,-64 66.88450622558594,-37 66.88450622558594,-8z"></path>
  <path stroke-linecap="round" stroke-linejoin="round" fill-opacity="0" stroke="rgb(0,0,0)" stroke-opacity="1" stroke-width="10" transform="translate(400,200)" d=" M66.88450622558594,-8 C66.88450622558594,21 47.35989761352539,41 12.21560287475586,48 C12.21560287475586,48 -7.309004783630371,64 -7.309004783630371,64 C-7.309004783630371,64 -15.118847846984863,48 -15.118847846984863,48 C-50.26314163208008,41 -67.83528900146484,17 -67.83528900146484,-8 C-67.88450622558594,-37 -42.45330047607422,-64 -1.4516226053237915,-64 C39.550052642822266,-64 66.88450622558594,-37 66.88450622558594,-8z"></path>

  <path fill="rgb(0,0,0)" fill-opacity="1" transform="translate(368,193.88900756835938)" d=" M9.306580543518066,0.11100000143051147 C9.306580543518066,6.669000148773193 6.280266284942627,9.352999687194824 0.28523531556129456,9.352999687194824 C-5.7097954750061035,9.352999687194824 -8.736109733581543,6.15500020980835 -8.736109733581543,0.11100000143051147 C-8.736109733581543,-5.933000087738037 -4.914167881011963,-10.42300033569336 0.28523531556129456,-9.130000114440918 C5.484638214111328,-7.836999893188477 9.306580543518066,-6.447000026702881 9.306580543518066,0.11100000143051147z"></path>

  <path fill="rgb(0,0,0)" fill-opacity="1" transform="translate(399.9880065917969,193.97300720214844)" d=" M9.600566864013672,0.027000000700354576 C8.989446640014648,6.0269999504089355 4.315255641937256,9.876999855041504 -0.4633921682834625,10.336000442504883 C-5.242040157318115,10.795000076293945 -9.788345336914062,4.859000205993652 -10.527351379394531,0.027000000700354576 C-11.266357421875,-4.804999828338623 -7.122259616851807,-9.498000144958496 -0.4633921682834625,-10.281999588012695 C6.195475101470947,-11.065999984741211 10.211687088012695,-5.9730000495910645 9.600566864013672,0.027000000700354576z"></path>

  <path fill="rgb(0,0,0)" fill-opacity="1" transform="translate(432.14898681640625,194.03799438476562)" d=" M9.040144920349121,-0.03799999877810478 C7.393243789672852,5.61299991607666 5.74634313583374,9.548999786376953 -1.3850196599960327,10.640999794006348 C-7.079371452331543,11.512999534606934 -11.810184478759766,5.860000133514404 -11.810184478759766,-0.03799999877810478 C-11.810184478759766,-5.935999870300293 -7.899405002593994,-10.375 -1.3850196599960327,-10.717000007629395 C4.331785678863525,-11.017000198364258 10.788573265075684,-6.038000106811523 9.040144920349121,-0.03799999877810478z"></path>
</svg>