<svg xmlns="http://www.w3.org/2000/svg" viewBox="340 375 140 70" width="152" height="81">
  <g transform="matrix(1,0,0,1,401.046,401.452)">
    <path fill="#000" d="M-2.581,26.543C-14.525,26.543 -26.469,26.565 -38.412,26.529C-41.518,26.52 -44.626,26.396 -47.726,26.208C-51.128,26.002 -52.974,23.937 -53,20.017C-53.054,12.185 -52.943,4.352 -52.9,-3.48C-52.886,-6.089 -52.826,-8.698 -52.87,-11.306C-52.903,-13.227 -52.444,-14.936 -51.042,-16.287C-48.375,-18.858 -45.822,-21.583 -42.922,-23.862C-41.643,-24.867 -39.638,-25.344 -37.95,-25.374C-20.899,-25.677 -3.846,-25.829 13.206,-26.041C21.038,-26.138 28.87,-26.264 36.702,-26.397C39.129,-26.438 41.563,-26.714 43.978,-26.587C47.846,-26.384 51.668,-23.181 52.742,-19.49C52.91,-18.913 53.011,-18.294 53.012,-17.695C53.02,-8.422 53.011,0.85 52.996,10.123C52.992,12.556 52.223,14.651 50.41,16.378C47.763,18.899 45.34,21.674 42.549,24.016C40.777,25.503 38.716,26.642 36.085,26.62C23.197,26.511 10.308,26.571 -2.581,26.571Z"/>
  </g>
  <g transform="matrix(1,0,0,1,397.186,405.062)">
    <path fill="#fff" d="M-0.693,19.297H39.785C43.702,19.297 45.386,17.598 45.396,13.718C45.419,5.001 45.449,-3.715 45.486,-12.432C45.498,-15.342 44.552,-17.7 41.624,-18.744C40.557,-19.124 39.359,-19.301 38.221,-19.297C12.903,-19.201 -12.413,-19.065 -37.731,-18.941C-42.394,-18.918 -45.359,-16.331 -45.424,-11.663C-45.552,-2.457 -45.452,6.753 -45.405,15.961C-45.395,17.863 -43.769,19.297 -41.834,19.297H-0.693Z"/>
  </g>
  <g transform="matrix(1,0,0,1,406.129,405.087)">
    <path fill="#000" d="M0.486,0.991C1.06,-1.012 1.62,-3.019 2.215,-5.016C2.434,-5.751 2.689,-6.511 3.044,-7.146C3.507,-7.975 4.267,-8.075 4.767,-7.956C5.242,-7.843 5.995,-7.612 6.115,-6.629C6.2,-5.931 5.895,-5.423 5.75,-4.957C4.604,-1.269 3.437,2.413 2.247,6.087C1.937,7.046 1.55,7.963 0.273,7.996C-0.972,8.029 -1.503,7.237 -1.86,6.255C-3.237,2.469 -4.61,-1.317 -5.938,-5.12C-6.266,-6.06 -6.266,-7.125 -5.171,-7.539C-3.957,-7.997 -3.319,-7.021 -2.908,-6.105C-1.856,-3.758 -0.895,-1.369 0.102,1.003C0.224,1.245 0.38,1.263 0.486,0.991Z"/>
  </g>
  <g transform="matrix(1,0,0,1,417.787,405.067)">
    <path fill="#000" d="M-0.829,-4.762V-2.787C-0.836,-1.324 -1.024,-1.38 -0.232,-1.38C1.326,-1.38 2.601,-1.181 2.567,0.453C2.533,2.087 1.885,2.12 -0.683,2.047V5.449C0.538,5.509 1.692,5.6 2.821,5.679C3.718,5.742 4.37,6.058 4.292,7.001C4.223,7.837 3.517,8.49 3.048,8.509C1.012,8.589 -1.044,8.412 -3.06,8.193C-4.018,8.089 -4.3,6.736 -4.298,5.957C-4.286,1.691 -4.119,-2.577 -3.91,-6.839C-3.854,-7.974 -3.07,-8.631 -1.855,-8.515C-0.164,-8.354 2.379,-8.665 3.048,-7.375C3.651,-6.173 2.719,-4.891 1.339,-4.771C0.689,-4.715 0.029,-4.762 -0.829,-4.762Z"/>
  </g>
  <g transform="matrix(1,0,0,1,386.309,405.397)">
    <path fill="#000" d="M-0.232,4C0.894,4 1.781,3.914 2.645,4.021C3.897,4.176 4.949,4.781 4.934,6.194C4.919,7.578 3.748,7.756 2.676,7.886C1.034,8.085 -0.612,8.25 -2.255,8.442C-3.502,8.588 -4.56,8.117 -4.802,6.883C-4.983,5.963 -4.944,4.97 -4.885,4.047C-4.647,0.298 -4.317,-3.445 -4.011,-7.189C-3.92,-8.3 -3.133,-8.438 -2.229,-8.466C-0.963,-8.505 -0.564,-7.661 -0.496,-6.67C-0.348,-4.516 -0.296,-2.354 -0.239,-0.194C-0.204,1.127 -0.232,2.45 -0.232,4Z"/>
  </g>
  <g transform="matrix(1,0,0,1,369.841,405.017)">
    <path fill="#000" d="M-5.61,0.159C-5.548,-3.133 -2.993,-5.725 0.161,-5.693C3.263,-5.662 5.679,-3.139 5.61,-0.003C5.538,3.299 3.024,5.747 -0.237,5.692C-3.718,5.633 -5.675,3.618 -5.61,0.159Z"/>
  </g>
  <g transform="matrix(1,0,0,1,395.511,405.011)">
    <path fill="#000" d="M-1.507,-6.106C-1.435,-7.061 -1.213,-8.047 0.095,-8.01C1.395,-7.973 1.793,-7.072 1.811,-5.99C1.877,-2.112 1.931,1.767 1.905,5.645C1.894,7.34 1.148,8.063 -0.205,8.008C-1.884,7.94 -1.905,6.726 -1.912,5.519C-1.922,3.746 -1.666,-4.008 -1.507,-6.106Z"/>
  </g>
  <g transform="matrix(1,0,0,1,369.926,405.433)">
    <circle cx="-0.093" cy="0" r="2.75" fill="#fd7e40"/>
  </g>
</svg>
