<svg width="300" height="300" viewBox="-50 -50 100 100" xmlns="http://www.w3.org/2000/svg">
  <g transform="scale(0.9)">
    <path 
      stroke-linecap="butt" 
      stroke-linejoin="miter" 
      fill="none" 
      stroke="black" 
      stroke-width="0.5"
      d="M-6.894,-22.294 C-6.106,-22.817 -4.738,-22.423 -3.867,-20.512 C-2.774,-18.115 -1.153,-15.952 0.289,-13.721 
         C2.433,-10.301 5.339,-8.058 9.322,-7.311 C12.989,-5.769 17.17,-10.157 19.934,-7.349 
         C20.451,-6.45 20.105,-5.259 18.875,-5.017 C10.122,-3.279 6.739,8.035 8.437,18.157 
         C8.631,19.28 9.48,20.522 8.217,21.235 C6.943,21.954 5.89,21.223 5.394,19.831 
         C3.932,16.949 2.516,14.01 0.846,11.247 C-4.5,3.364 -13.835,8.681 -20.993,9.286 
         C-27.555,7.596 -17.006,2.757 -14.962,1.591 C-11.286,0.002 -8.91,-2.707 -7.503,-6.218 
         C-5.775,-10.529 -4.629,-14.972 -6.846,-19.573 C-7.191,-20.29 -7.682,-21.771 -6.894,-22.294 
         z 
         M3.393,7.056 C4.823,2.317 6.401,-0.495 8.737,-4.223 
         C4.327,-4.359 0.907,-5.829 -2.009,-9.928 
         C-2.828,-3.596 -4.974,-0.973 -9.669,2.964 
         C-4.813,3.033 -0.517,4.26 3.393,7.056 z"
    />
    <path 
      fill="black"
      d="M-6.894,-22.294 C-6.106,-22.817 -4.738,-22.423 -3.867,-20.512 C-2.774,-18.115 -1.153,-15.952 0.289,-13.721 
         C2.433,-10.301 5.339,-8.058 9.322,-7.311 C12.989,-5.769 17.17,-10.157 19.934,-7.349 
         C20.451,-6.45 20.105,-5.259 18.875,-5.017 C10.122,-3.279 6.739,8.035 8.437,18.157 
         C8.631,19.28 9.48,20.522 8.217,21.235 C6.943,21.954 5.89,21.223 5.394,19.831 
         C3.932,16.949 2.516,14.01 0.846,11.247 C-4.5,3.364 -13.835,8.681 -20.993,9.286 
         C-27.555,7.596 -17.006,2.757 -14.962,1.591 C-11.286,0.002 -8.91,-2.707 -7.503,-6.218 
         C-5.775,-10.529 -4.629,-14.972 -6.846,-19.573 C-7.191,-20.29 -7.682,-21.771 -6.894,-22.294 
         z 
         M3.393,7.056 C4.823,2.317 6.401,-0.495 8.737,-4.223 
         C4.327,-4.359 0.907,-5.829 -2.009,-9.928 
         C-2.828,-3.596 -4.974,-0.973 -9.669,2.964 
         C-4.813,3.033 -0.517,4.26 3.393,7.056 z"
    />
  </g>
</svg>
