<svg xmlns="http://www.w3.org/2000/svg" width="400" height="400" viewBox="380 380 50 50">
  <!-- Main Group -->
  <g opacity="1" transform="scale(1)">
    <!-- Outer Shape with Stroke -->
    <path stroke-linecap="butt" stroke-linejoin="miter" fill-opacity="0" stroke-miterlimit="4"
      stroke="black" stroke-opacity="1" stroke-width="0.5"
      d="
        M399.09,395.61 C399.01,396.83 398.87,398.03 397.21,398.12 
        C395.56,398.21 394.57,397.51 394.37,395.63 
        C394.2,393.91 393.8,392.31 393.1,390.74 
        C392.54,389.45 393.38,387.72 394.6,387.31 
        C396.11,386.79 397.87,387.65 398.17,389.4 
        C398.53,391.46 399.25,393.47 399.09,395.61z 
      
        M387.98,407.55 C386.84,407.58 385.76,407.06 385.46,405.57 
        C385.15,404.04 386.28,403.37 387.42,402.94 
        C388.1,402.69 388.7,402.4 389.3,402.01 
        C390.98,400.9 392.96,401.31 393.87,402.91 
        C394.66,404.31 394.16,405.6 392.2,406.52 
        C390.99,407.09 389.67,407.55 387.98,407.55z 
      
        M404.14,403.55 C403.08,403.71 402.48,403.17 401.95,402.38 
        C401.29,401.39 401.98,400.52 402.47,400.05 
        C404.04,398.54 405.88,397.37 408.2,397.31 
        C409.21,397.28 409.94,397.78 410.25,398.64 
        C410.6,399.59 410.6,400.64 409.65,401.35 
        C408,402.56 406.09,403.14 404.14,403.55z 
      
        M402.3,411.08 C402.38,412.41 401.74,413.28 400.56,413.57 
        C399.06,413.93 398.22,412.82 397.75,411.7 
        C397.33,410.67 396.93,409.6 396.85,408.4 
        C396.73,406.37 397.11,405.31 398.56,405 
        C400.21,404.63 400.96,405.8 401.38,407.05 
        C401.83,408.36 402.01,409.77 402.3,411.08z
      " />

    <!-- Inner Shaded Details -->
    <g transform="translate(396.018,392.645)">
      <path fill="rgb(45,42,41)" fill-opacity="1"
        d="
          M3.071,2.961 C2.991,4.19 2.847,5.381 1.188,5.475 
          C-0.458,5.568 -1.453,4.867 -1.644,2.985 
          C-1.818,1.265 -2.222,-0.331 -2.915,-1.908 
          C-3.478,-3.19 -2.634,-4.92 -1.419,-5.335 
          C0.089,-5.85 1.853,-4.998 2.154,-3.244 
          C2.507,-1.186 3.229,0.828 3.071,2.961z" />
    </g>

    <g transform="translate(389.817,404.47)">
      <path fill="rgb(55,53,52)" fill-opacity="1"
        d="
          M-1.839,3.082 C-2.972,3.112 -4.055,2.586 -4.357,1.099 
          C-4.668,-0.435 -3.541,-1.103 -2.393,-1.529 
          C-1.718,-1.779 -1.112,-2.071 -0.517,-2.463 
          C1.161,-3.568 3.142,-3.157 4.05,-1.556 
          C4.841,-0.161 4.34,1.131 2.388,2.05 
          C1.172,2.622 -0.142,3.083 -1.839,3.082z" />
    </g>

    <g transform="translate(406.071,400.444)">
      <path fill="rgb(48,45,44)" fill-opacity="1"
        d="
          M-1.931,3.11 C-2.994,3.269 -3.596,2.73 -4.124,1.934 
          C-4.78,0.945 -4.09,0.072 -3.6,-0.398 
          C-2.027,-1.907 -0.194,-3.072 2.126,-3.137 
          C3.141,-3.165 3.868,-2.669 4.18,-1.808 
          C4.526,-0.853 4.532,0.195 3.576,0.901 
          C1.929,2.118 0.019,2.697 -1.931,3.11z" />
    </g>

    <g transform="translate(399.569,409.283)">
      <path fill="rgb(50,47,46)" fill-opacity="1"
        d="
          M2.731,1.799 C2.81,3.129 2.166,3.998 0.99,4.283 
          C-0.505,4.645 -1.352,3.542 -1.816,2.42 
          C-2.241,1.392 -2.644,0.318 -2.716,-0.878 
          C-2.838,-2.908 -2.464,-3.969 -1.009,-4.287 
          C0.641,-4.648 1.386,-3.484 1.814,-2.232 
          C2.263,-0.921 2.443,0.483 2.731,1.799z" />
    </g>
  </g>
</svg>
