<svg xmlns="http://www.w3.org/2000/svg" viewBox="0 0 800 800" width="400" height="400">
  <g style="display: block;" transform="matrix(1.3965896368026733,0.09765905886888504,-0.09765905886888504,1.3965896368026733,194.92108154296875,332.96112060546875)" opacity="1">
    
    <g opacity="1" transform="matrix(1,0,0,1,0,0)">
      <path fill="rgb(35,31,31)" fill-opacity="1" d="M294.375,-117.625 C292,-118.375 291,-104.5 293.125,-104.625 C294.8760070800781,-104.72799682617188 297.1809997558594,-116.73899841308594 294.375,-117.625z"/>
    </g>
    
    <g opacity="1" transform="matrix(1,0,0,1,12,5.125)">
      <path fill="rgb(35,31,31)" fill-opacity="1" d="M308.27099609375,-122.2770004272461 C304.2980041503906,-120.6780014038086 291.31298828125,-106.375 292.4360046386719,-104.90599822998047 C293.66400146484375,-103.30000305175781 306.6730041503906,-114.79399871826172 310.4280090332031,-119.68000030517578 C311.875,-121.56199645996094 310.68701171875,-123.25 308.27099609375,-122.2770004272461z"/>
    </g>
    
    <g opacity="1" transform="matrix(1,0,0,1,14.875,18.875)">
      <path fill="rgb(35,31,31)" fill-opacity="1" d="M307.5570068359375,-112.74299621582031 C305.447998046875,-112.5270004272461 299.4389953613281,-109.98799896240234 295.6820068359375,-107.86900329589844 C295.4840087890625,-107.75700378417969 295.2919921875,-107.64700317382812 295.1080017089844,-107.53800201416016 C293.9909973144531,-106.87899780273438 294.302001953125,-105.31199645996094 295.6679992675781,-105.6719970703125 C300.0060119628906,-106.81400299072266 304.3739929199219,-108.23400115966797 308.1809997558594,-109.46199798583984 C310.625,-110.25 310.06298828125,-113 307.5570068359375,-112.74299621582031z"/>
    </g>
    
  </g>
</svg>
