<svg xmlns="http://www.w3.org/2000/svg" viewBox="0 0 200 150" width="300" height="200" fill="none">
  <g transform="translate(100,75)">
    <path 
      d="M-66.087,-5.614C-49.13,8.136 -17.904,24.997 3.411,13.094 
         C11.388,8.383 14.702,5.187 16.962,-3.297 
         C18.932,-14.217 6.381,-26.737 -4.619,-24.897 
         C-14.123,-23.312 -15.316,-10.93 -10.308,-4.157 
         C-6.864,2.473 4.225,10.987 9.621,13.193 
         C25.201,21.993 41.831,26.433 59.841,24.713 
         C63.361,24.276 74.948,23.226 74.592,18.643 
         C74.161,17.303 72.881,17.913 71.941,17.853 
         C62.426,19.224 52.917,20.107 43.371,18.553 
         C29.436,16.764 16.371,10.477 4.621,2.723 
         C-0.603,-1.446 -6.651,-6.708 -7.199,-13.777 
         C-7.249,-17.747 -5.089,-19.537 -1.139,-18.977 
         C5.191,-18.057 11.611,-11.847 11.571,-5.757 
         C10.141,3.14 -1.115,10.446 -9.919,11.002 
         C-27.107,11.665 -48.075,2.08 -61.409,-8.727 
         C-56.859,-9.467 -52.029,-10.22 -48.319,-11.747 
         C-44.609,-13.274 -45.483,-17.51 -49.589,-16.357 
         C-56.369,-15.147 -63.179,-14.277 -70.099,-14.267 
         C-74.049,-14.257 -75.539,-12.057 -74.009,-8.537 
         C-71.219,-2.127 -67.873,3.882 -64.953,10.232 
         C-64.103,12.082 -62.855,14.706 -60.535,13.676 
         C-57.985,12.556 -59.473,9.699 -60.373,7.719 
         C-62.363,3.369 -65.408,-3.13 -66.087,-5.614Z"
      fill="#23201F" />
  </g>
</svg>
