<svg xmlns="http://www.w3.org/2000/svg" viewBox="0 0 200 150" width="300" height="200" fill="none">
  <g transform="translate(100,75)">
    <path 
      d="M18.892,39.459 
         C12.652,24.32 6.514,9.638 -0.888,-4.598 
         C-8.356,-18.961 -18.613,-30.949 -28.728,-43.211 
         C-29.454,-44.091 -30.253,-44.958 -30.752,-45.963 
         C-31.211,-46.886 -31.128,-47.925 -30.26,-48.766 
         C-29.49,-49.512 -28.781,-49.376 -27.844,-49.042 
         C-25.989,-48.38 -24.45,-47.336 -23.115,-45.922 
         C-11.713,-33.844 -0.488,-21.572 5.49,-5.727 
         C8.449,2.116 12.008,9.687 15.191,17.422 
         C17.512,23.062 19.421,28.869 22.067,35.281 
         C24.031,27.69 24.529,20.714 25.605,13.839 
         C25.704,13.21 25.697,12.547 25.894,11.952 
         C26.435,10.322 27.175,8.66 29.295,9.137 
         C31.253,9.577 31.091,11.213 30.951,12.838 
         C30.166,21.977 28.26,30.954 27.081,40.034 
         C26.82,42.045 26.889,44.097 26.683,46.117 
         C26.359,49.289 24.449,50.126 21.658,48.504 
         C12.888,43.407 4.681,37.349 -4.619,33.151 
         C-5.84,32.6 -7.503,32.044 -6.68,30.174 
         C-5.956,28.529 -4.48,28.81 -3.047,29.232 
         C2.594,30.891 7.948,33.19 12.879,36.404 
         C14.678,37.577 16.433,38.796 18.892,39.459Z"
      fill="#23201F" />
  </g>
</svg>
