<svg xmlns="http://www.w3.org/2000/svg" viewBox="0 0 200 150" width="300" height="200" fill="none">
  <g transform="translate(100,75)">
    <path 
      d="M-19.01,1.55C-25.43,-0.71 -36.68,-5.31 -39.77,-15.25C-42.51,-24.03 -38.42,-32.87 -28.24,-34.70 
         C-6.20,-38.01 -3.24,-17.31 -10.47,1.82L-12.96,6.77C-19.34,22.75 -39.36,31.85 -54.64,37.31 
         C-56.10,37.81 -57.55,38.83 -57.10,40.68C-56.38,43.49 -53.26,42.65 -51.21,42.06 
         C-40.75,39.60 -31.61,34.26 -22.83,28.41C-17.11,24.60 -8.34,13.13 -6.02,7.01L-3.78,1.15 
         C-1.93,-5.25 -1.74,-11.45 -2.06,-17.71C-2.67,-29.53 -8.24,-36.29 -19.65,-39.06 
         C-28.90,-41.30 -40.69,-35.80 -44.01,-27.69C-49.89,-9.08 -35.29,2.17 -19.18,6.66 
         C-15.47,7.69 -10.24,8.10 -5.09,7.33C15.68,4.24 34.69,-13.27 48.39,-29.50 
         C48.77,-29.95 49.20,-29.86 49.25,-29.16C48.27,-24.84 47.22,-20.53 46.33,-16.19 
         C45.86,-13.91 46.09,-11.69 48.84,-11.01C51.46,-10.36 53.10,-11.88 53.71,-14.20 
         C55.64,-21.60 57.35,-29.07 57.18,-36.80C57.08,-41.50 54.82,-43.47 50.26,-42.35 
         C41.48,-40.19 32.79,-37.69 24.07,-35.28C22.64,-34.89 21.43,-34.04 21.76,-32.28 
         C22.85,-26.86 38.28,-32.13 42.17,-32.71C43.20,-32.86 43.24,-32.20 42.81,-31.47 
         C27.81,-19.89 17.38,-3.15 -2.79,1.55C-10.03,3.23 -12.78,3.74 -19.01,1.55Z" 
      fill="#23201F"/>
  </g>
</svg>
